<?xml version="1.0" standalone="no"?>
<!DOCTYPE svg PUBLIC "-//W3C//DTD SVG 20010904//EN"
 "http://www.w3.org/TR/2001/REC-SVG-20010904/DTD/svg10.dtd">
<svg version="1.0" xmlns="http://www.w3.org/2000/svg"
 width="512.000000pt" height="512.000000pt" viewBox="0 0 512.000000 512.000000"
 preserveAspectRatio="xMidYMid meet">
<metadata>
Created by potrace 1.11, written by Peter Selinger 2001-2013
</metadata>
<g transform="translate(0.000000,512.000000) scale(0.100000,-0.100000)"
fill="#000000" stroke="none">
<path d="M805 5108 c-358 -66 -638 -306 -757 -648 -49 -143 -48 -102 -45
-1935 1 -940 5 -1719 9 -1730 3 -11 13 -48 22 -83 80 -305 321 -561 621 -660
147 -49 62 -47 1895 -47 949 0 1741 3 1760 6 314 57 574 249 708 524 44 90 80
202 90 279 4 28 7 825 7 1771 l0 1720 -22 83 c-48 176 -141 338 -261 453 -114
110 -203 166 -356 223 -152 57 -74 55 -1921 54 -1000 0 -1721 -4 -1750 -10z
m3470 -392 c182 -43 335 -170 408 -341 43 -100 43 -85 41 -1833 -1 -917 -4
-1680 -8 -1697 -51 -219 -222 -388 -443 -441 -15 -4 -777 -8 -1693 -9 -1345
-1 -1678 1 -1730 12 -86 17 -214 82 -270 136 -96 92 -139 168 -177 311 -3 12
-7 774 -8 1694 -1 1559 0 1678 16 1742 31 122 81 207 172 291 68 63 194 123
282 136 22 3 41 6 42 7 7 6 3343 -2 3368 -8z"/>
<path d="M3735 4191 c-50 -23 -63 -38 -167 -191 -46 -69 -132 -195 -190 -280
-57 -85 -158 -234 -223 -330 -141 -209 -178 -263 -185 -270 -3 -3 -9 -13 -15
-22 -10 -17 -152 -229 -326 -483 -45 -66 -151 -223 -237 -350 -198 -293 -263
-388 -273 -399 -4 -5 -171 155 -370 354 -391 391 -411 407 -494 397 -24 -3
-56 -12 -72 -21 -32 -17 -335 -320 -352 -353 -16 -32 -20 -99 -8 -141 8 -30
122 -149 590 -619 656 -658 644 -648 781 -647 122 0 179 44 317 249 284 420
469 693 834 1230 56 83 145 213 197 290 52 77 157 232 233 345 77 113 170 250
207 305 37 55 71 105 75 110 43 55 253 379 254 393 6 70 3 91 -18 133 -21 42
-44 61 -191 162 -92 63 -185 124 -207 136 -49 26 -107 27 -160 2z"/>
</g>
</svg>
